<svg xmlns="http://www.w3.org/2000/svg" viewBox="0 0 700 700"><g fill="none" stroke-width="2"><path stroke="#197ac1" d="m324.42 698.96 59.33-59.37" vector-effect="non-scaling-stroke"/><path stroke="#1771b4" d="m383.75 639.59 78.96-79.18" vector-effect="non-scaling-stroke"/><path stroke="#8ec5ed" d="M462.71 560.41c16.49-13.99 13.55-30.48 13.55-49.82q-.02-170.02-.01-340.04 0-7.8-1.3-12.34c-4.53-15.73-18.33-25.7-34.7-25.71q-84.81-.02-169.62.02-11.39 0-16.49 1.48-11.37 3.29-19.31 13.18" vector-effect="non-scaling-stroke"/><path stroke="#166dad" d="m234.83 147.18-75.38 75.29" vector-effect="non-scaling-stroke"/><path stroke="#1771b4" d="m159.45 222.47-77.01 76.76" vector-effect="non-scaling-stroke"/><path stroke="#197ac1" d="m82.44 299.23-70.49 70.48" vector-effect="non-scaling-stroke"/><path stroke="#1a7ec7" d="m11.95 369.71-10.5 11.34" vector-effect="non-scaling-stroke"/><path stroke="#89acc6" d="M462.71 560.41c-8.5 5.91-15.23 7.09-26.37 7.09q-56.22-.02-112.25.03" vector-effect="non-scaling-stroke"/><path stroke="#8ab4d3" d="M324.09 567.53q-26.71-.07-53.27-.01-10.78.03-16.03-1.37c-15.86-4.21-26.26-18.14-26.27-34.96q-.03-33.84-.03-67.7" vector-effect="non-scaling-stroke"/><path stroke="#89acc6" d="m228.49 463.49.01-168.87" vector-effect="non-scaling-stroke"/><path stroke="#88a8bf" d="M228.5 294.62V166.75q0-8.87 6.33-19.57" vector-effect="non-scaling-stroke"/><path stroke="#89acc6" d="M240.51 381.75q-.02 71.18-.01 142.36.01 10.78 1.49 15.5c4.22 13.41 15.24 17.47 28.27 17.43 53.94-.15 107.54-.27 161.89-.04q10.52.04 15.02-1.4 11.06-3.54 15.56-14.96" vector-effect="non-scaling-stroke"/><path stroke="#88a8bf" d="M462.73 540.64q1.81-5.19 1.81-9.89-.04-178.03-.03-356.06 0-9.66-1.44-14.22c-4.2-13.31-15.01-17.51-28.01-17.5q-83.17.08-166.35 0c-16.79-.01-28.2 9.66-28.21 27.28q-.01 105.75.01 211.5" vector-effect="non-scaling-stroke"/><path stroke="#115486" d="m462.73 540.64-1.09-5.18q-.13-.65-.79-.71-1.88-.17-2.11-2.16a1.28 1.24 18.2 0 0-.43-.82l-3.5-3.05q-.42-.36-.4-.92.1-2.06-1.8-2.37-.5-.08-.79-.49-2.29-3.29-6.09-4.83-.55-.23-.58-.82-.08-1.77-2.2-2.19-2.22-.44-1.25-2.63.2-.46-.04-.9c-1.12-2.04-3.08-2.29-4.38-3.51q-2.11-1.97-3.11-4.62-.19-.5-.61-.81-2.23-1.63-2.08-4.32.02-.49.5-.57l9.52-1.75" vector-effect="non-scaling-stroke"/><path stroke="#88a8bf" d="m441.5 497.99 15.98.01a.52.52 0 0 0 .52-.52V189.92q0-.64-.64-.63l-209.75.09q-.58 0-.58.58l-.26 212.55" vector-effect="non-scaling-stroke"/><path stroke="#115486" d="M246.77 402.51q-.59-.33-.65-1.3c-.08-1.36-.34-2.58-.4-3.91q-.02-.41-.21-.05l-.28.52q-.27.5-.54 0l-1.11-2.01q-.51-.93-.98.02l-.51 1.05q-.12.24-.21-.02-.06-.17-.16-.29-.41-.49-.49.14-.3 2.6-.25 5.21 0 .06-.06.06-.04.01-.08.01a.14.13-90 0 1-.13-.14l-.2-20.05" vector-effect="non-scaling-stroke"/><path stroke="#89acc6" d="m441.5 497.99-193.91-.01q-.52 0-.52-.52l-.3-94.95" vector-effect="non-scaling-stroke"/><path stroke="#88a8bf" d="M383.23 168.41a7.63 7.63 0 0 0-7.63-7.63h-46.2a7.63 7.63 0 0 0-7.63 7.63v.44a7.63 7.63 0 0 0 7.63 7.63h46.2a7.63 7.63 0 0 0 7.63-7.63v-.44" vector-effect="non-scaling-stroke"/><path stroke="#115486" d="M228.5 294.62q-2.54 1.82-3.59-3.55-.09-.43-.39-.75-1.5-1.57-2.12-3.63-.15-.51-.68-.46-1.89.2-2.25-1.43-.82-3.74-3.81-4.88-.47-.17-.76-.58-8.04-11.16-17.97-20.65c-2.25-2.15-2.37-4.77-5.89-6q-.41-.15-.55-.56-1.16-3.43-4.81-3.44-.53 0-.65-.52c-.98-4.03-5.36-8.08-8.38-10.81q-.39-.35-.9-.49-1.62-.44-1.5-2.13a.83.82-75.3 0 0-.46-.8q-2.27-1.11-2.94-3.63a.6.57 12.7 0 0-.2-.3l-4.17-3.04q-.45-.33-.55-.87-.87-4.47-6.48-3.63" vector-effect="non-scaling-stroke"/><path stroke="#89acc6" d="m257.77 342.26.01 142.67q0 .54.53.54l119.67-.01" vector-effect="non-scaling-stroke"/><path stroke="#88a8bf" d="m377.98 485.46 68.79.01q.48 0 .48-.47V201.94a.44.44 0 0 0-.44-.44H258.26q-.53 0-.53.53l.04 140.23" vector-effect="non-scaling-stroke"/><path stroke="#115486" d="M377.98 485.46q7.71-1.81 15.45-1.76a.92.91 74 0 0 .78-1.41q-3.62-5.69-8.76-9.98a1.21 1.19-71.2 0 1-.42-.87c-.08-3.34-1.89-3.71-3.65-5.63-2.27-2.48-4.52-5.26-7.17-7.34q-.82-.65-1.13-1.69-.15-.49-.62-.69l-1.95-.85a.89.87-.7 0 1-.43-.41q-1.61-3.21-5.03-4.33a.79.79 0 0 1-.54-.64q-.28-1.97-2.18-2.6a1.03 1.03 0 0 1-.71-.89q-.25-2.98-3.14-3.67a1.27 1.24 82.3 0 1-.83-.65l-.91-1.82q-.25-.49-.78-.66c-1.24-.39-2.28-1.14-2.83-2.44q-2.55-6.01-7.81-9.97-1.41-1.07-4.12-5.53a1.64 1.57-2.5 0 0-.74-.65q-3.64-1.59-5.66-5.1-.28-.49-.82-.68-1.25-.45-1.59-1.65a1.21 1.08-77.7 0 0-.27-.48l-12.81-13.47q-.33-.34-.48-.79-.54-1.66-2.08-2.57a1.86 1.81-89.2 0 1-.72-.76q-2.3-4.45-6.12-7.67-.07-.06-.17-.06h-.27q-.38.01-.6-.29-1.31-1.78-2.98-3.21c-1.74-1.49-2.65-3.56-4.86-4.73q-.44-.24-.55-.72c-.41-1.76-1.86-2.32-2.7-3.26q-2.23-2.47-4.32-5.07c-4.1-5.11-8.98-9.32-12.79-14.56q-4.3-5.93-10.34-10.17-.44-.31-.62-.81-.89-2.42-3.36-3.32-.54-.2-.8-.71-1.1-2.18-3.17-3.42-.43-.26-.68-.68l-1.89-3.09q-.4-.65-.54.11l-1.5 8.44" vector-effect="non-scaling-stroke"/><path stroke="#14619a" d="m228.49 463.49-.28 3.12a.34.34 0 0 1-.67.04l-.53-2.88a.13.13 0 0 0-.24-.03l-.24.44q-.53.99-.63-.12-.31-3.69-3.54-5.11a1.72 1.71-4.2 0 1-.76-.65q-1.62-2.55-3.69-4.71c-1.43-1.49-2.42-3.42-4.07-4.89-5.78-5.15-10.13-12.8-15.57-18.63-2.77-2.97-4.9-6.34-8.19-9.01-3.19-2.58-5.82-6.9-8.62-8.78q-1.95-1.3-2.68-2.57-4.43-7.61-10.98-13.41c-1.81-1.6-3.22-4.09-5.83-5.43q-.46-.23-.74-.67-3.93-6-9.25-10.77-3.17-2.85-5.33-5.5c-1.81-2.21-4.77-4.73-5.97-7.23-.61-1.25-2.25-2.16-2.91-3-3.69-4.72-8.33-8.32-11.94-13.5q-.29-.42-.75-.63c-1.7-.77-3.02-1.08-4.26-2.6q-6.8-8.31-14.29-16.03c-.97-1-1.48-2.58-2.8-3.54q-.38-.28-.85-.33l-1.55-.15q-.64-.07-.6-.7c.26-4.63-5.01-3.59-5.88-7.73q-.1-.49-.6-.49h-.74q-.35 0-.5-.33l-.8-1.81a.73.72-15.9 0 0-.77-.42c-1.11.17-1.92.54-2.91-.02q-1.46-.82-.67-2.54.23-.47-.12-.86c-2.35-2.67-3.43-6.84-7.76-6.73a.47.47 0 0 1-.48-.54q.42-2.76 2.65-4.32.44-.31.35-.84l-.06-.36M324.09 567.53l-4.55.86a.39.39 0 0 0-.01.76l6.55 1.3q.41.08.57.47c1.91 4.48 3.48 6.41 7.55 10.04q3.38 3 5.58 7.06c.71 1.31 1.2 1.61 2.55 2.06q.51.17.82.61 2.48 3.51 6.22 5.53.47.25.64.75c.82 2.4 3.01 3.66 4.15 6.08q.22.46.69.65l1.75.69q.48.2.8.6c4.26 5.28 9.16 9.87 13.26 15.22 1.07 1.39 1.06 3.6 3.56 4.15q.48.11.77.5 2.14 2.91 4.44 5.7c1.04 1.27 1.37.81 2.32 1.45q1.91 1.3 2.6 3.57a.98.97 56.5 0 1-.18.9q-3.9 4.7-.42 3.11" vector-effect="non-scaling-stroke"/><path stroke="#166dad" d="M304.97 697.05q.21-1.67-2.2-1.95-.79-.1-.08-.45l1.02-.49a.41.41 0 0 0 .03-.71q-3.78-2.27-5.58-6.34a1.08 1.07 84.3 0 0-.74-.61l-2.41-.55q-.54-.12-.49-.66c.32-3.75-3.94-5.56-5.76-8.45-.62-.99-1.12-1.24-2.14-1.6q-.51-.17-.82-.62l-3.3-4.74q-.32-.46-.87-.49-2.58-.17-1.8-2.72a.76.74 27.7 0 0-.26-.81q-.97-.78-1.72-.06a.73.72 60.7 0 1-1.19-.34q-1.44-5.33-6.49-7.67-.42-.19-.51-.64-.88-4.02-4.83-5.5a.91.9-85 0 1-.58-.7q-.4-2.3-2.58-2.62-.65-.09-.91-.7c-2.24-5.32-6.91-8.29-11.07-13.48q-.32-.4-.81-.55c-3.03-1-2.48-4.04-4.91-5.93a.84.84 0 0 0-1.04.02l-1.17.97a.58.57-46.3 0 1-.71.02q-.54-.4-.14-1.17a1.04.9-14.1 0 1 .12-.17l.68-.68a.61.61 0 0 0-.05-.91c-2.46-1.96-3.12-4.82-5.76-6.32q-.41-.23-.63-.64-.54-.99-1.36-1.69-4.25-3.61-7.09-8.43-1.05-1.78-3.69-1.64a.54.54 0 0 1-.57-.59q.19-2.36-2.02-3.14-.48-.17-.69-.64-1.79-4.08-5.57-6.39-.46-.28-.7-.76-1.51-3.01-4.41-4.81-.45-.28-.63-.79-1.58-4.4-6.06-5.7-.47-.14-.29-.6c.97-2.51-3.42-4.36-4.85-5.6q-.42-.36-.49-.92-.25-2.15-1.99-3.37-.47-.33-.74-.84-1.17-2.21-3.18-3.72-.19-.15-.19.09v.47q0 .29-.15.05-4-6.42-10.11-10.78c-1.48-1.06-2.23-2.62-4-3.59q-.44-.24-.72-.66-1.05-1.61-1.39-3.49-.09-.49-.45-.84c-1.71-1.72-6.63-5.86-7.73-9.15q-.16-.48-.68-.5-.32-.01-.63-.12-.52-.17-.95-.71-2.16-2.71-4.71-5.13c-1.7-1.61-3.94-1.64-5.15-4.14-2-4.15-4.59-6.54-8.59-8.76a1.64 1.64 0 0 1-.69-.72c-1.21-2.36-3.06-4.25-4.4-6.44q-2.73-4.46-6.96-7.7a1.16 1.15-78.6 0 1-.41-.62q-.5-2.04-2.59-2.15-.46-.02-.68-.42l-2.24-4.14a1.07 1.05-12.4 0 0-.88-.55q-1.99-.07-2.95-1.75-.26-.46-.31-.98-.28-2.98-3.14-3.67a1.39 1.36 85.2 0 1-.96-.83q-.51-1.3-1.97-.91a.97.97 0 0 1-.94-.24q-.96-.92-.58-2.25a.8.79 34.4 0 0-.13-.68l-4.73-6.05q-.3-.38-.77-.54c-2.65-.92-3.78-2.1-4.76-4.97q-2.02-5.85-8.09-7.82-.42-.13-.56-.56-1.65-5.3-7.06-6.92-.7-.21-.29-.82l.57-.85a.63.63 0 0 0-.02-.73q-3.2-4.23-7.66-6.97-.47-.29-.68-.81-1.91-4.74-6.45-7.08a1.01.97-82.2 0 1-.51-.7q-.49-2.72-2.99-3.95a1.34 1.29-1 0 1-.57-.53q-2.85-5-7.4-8.43c-2.42-1.82-3.34-3.82-4.86-6.24a1.54 1.47-5 0 0-.76-.61c-1.63-.59-2.12-2.32-2.9-3.12q-3.74-3.81-7.81-7.3c-.85-.73-2.27-.89-2.71-2.19-.73-2.2-.78-2.69-2.52-3.74q-.44-.27-.67-.73-.41-.85-1.29-1.04a5.61 4.97 87.3 0 1-3.87-3.97q-.42-1.59-2.23-1.15-.57.13-.94-.32l-.73-.93q-.51-.65.27-.92l.48-.16a.56.56 0 0 0 .26-.87q-3.39-4.32-7.36-8.13-.84-.8-2.03-.72-.53.03-.7-.46c-2.04-5.92-7.61-6.69-9.98-12.05q-.2-.45-.55-.79l-1.81-1.79q-.41-.4-.06-.86.91-1.17 1.03-2.32" vector-effect="non-scaling-stroke"/><path stroke="#89acc6" d="M372.18 528.42a19.68 19.68 0 0 0-19.68-19.68 19.68 19.68 0 0 0-19.68 19.68 19.68 19.68 0 0 0 19.68 19.68 19.68 19.68 0 0 0 19.68-19.68" vector-effect="non-scaling-stroke"/></g><path fill="#1c8adb" d="M342.84 0h15.2C546.46 5.75 694.17 153.91 700 342.07v15.48C694.87 545.52 545.51 695.71 356.43 700h-12.24l-19.77-1.04 59.33-59.37 78.96-79.18c16.49-13.99 13.55-30.48 13.55-49.82q-.02-170.02-.01-340.04 0-7.8-1.3-12.34c-4.53-15.73-18.33-25.7-34.7-25.71q-84.81-.02-169.62.02-11.39 0-16.49 1.48-11.37 3.29-19.31 13.18l-75.38 75.29-77.01 76.76-70.49 70.48-10.5 11.34L0 354.18v-10.51Q3.59 217.79 83.32 123.3C147.47 47.29 242.23 2.55 342.84 0Z"/><path fill="#fff" d="M462.71 560.41c-8.5 5.91-15.23 7.09-26.37 7.09q-56.22-.02-112.25.03-26.71-.07-53.27-.01-10.78.03-16.03-1.37c-15.86-4.21-26.26-18.14-26.27-34.96q-.03-33.84-.03-67.7l.01-168.87V166.75q0-8.87 6.33-19.57 7.94-9.89 19.31-13.18 5.1-1.48 16.49-1.48 84.81-.04 169.62-.02c16.37.01 30.17 9.98 34.7 25.71q1.3 4.54 1.3 12.34-.01 170.02.01 340.04c0 19.34 2.94 35.83-13.55 49.82Zm-222.2-178.66q-.02 71.18-.01 142.36.01 10.78 1.49 15.5c4.22 13.41 15.24 17.47 28.27 17.43 53.94-.15 107.54-.27 161.89-.04q10.52.04 15.02-1.4 11.06-3.54 15.56-14.96 1.81-5.19 1.81-9.89-.04-178.03-.03-356.06 0-9.66-1.44-14.22c-4.2-13.31-15.01-17.51-28.01-17.5q-83.17.08-166.35 0c-16.79-.01-28.2 9.66-28.21 27.28q-.01 105.75.01 211.5Z"/><path fill="#10507f" d="m462.73 540.64-1.09-5.18q-.13-.65-.79-.71-1.88-.17-2.11-2.16a1.28 1.24 18.2 0 0-.43-.82l-3.5-3.05q-.42-.36-.4-.92.1-2.06-1.8-2.37-.5-.08-.79-.49-2.29-3.29-6.09-4.83-.55-.23-.58-.82-.08-1.77-2.2-2.19-2.22-.44-1.25-2.63.2-.46-.04-.9c-1.12-2.04-3.08-2.29-4.38-3.51q-2.11-1.97-3.11-4.62-.19-.5-.61-.81-2.23-1.63-2.08-4.32.02-.49.5-.57l9.52-1.75 15.98.01a.52.52 0 0 0 .52-.52V189.92q0-.64-.64-.63l-209.75.09q-.58 0-.58.58l-.26 212.55q-.59-.33-.65-1.3c-.08-1.36-.34-2.58-.4-3.91q-.02-.41-.21-.05l-.28.52q-.27.5-.54 0l-1.11-2.01q-.51-.93-.98.02l-.51 1.05q-.12.24-.21-.02-.06-.17-.16-.29-.41-.49-.49.14-.3 2.6-.25 5.21 0 .06-.06.06-.04.01-.08.01a.14.13-90 0 1-.13-.14l-.2-20.05q-.02-105.75-.01-211.5c.01-17.62 11.42-27.29 28.21-27.28q83.18.08 166.35 0c13-.01 23.81 4.19 28.01 17.5q1.44 4.56 1.44 14.22-.01 178.03.03 356.06 0 4.7-1.81 9.89Zm-79.5-372.23a7.63 7.63 0 0 0-7.63-7.63h-46.2a7.63 7.63 0 0 0-7.63 7.63v.44a7.63 7.63 0 0 0 7.63 7.63h46.2a7.63 7.63 0 0 0 7.63-7.63v-.44ZM234.83 147.18q-6.33 10.7-6.33 19.57v127.87q-2.54 1.82-3.59-3.55-.09-.43-.39-.75-1.5-1.57-2.12-3.63-.15-.51-.68-.46-1.89.2-2.25-1.43-.82-3.74-3.81-4.88-.47-.17-.76-.58-8.04-11.16-17.97-20.65c-2.25-2.15-2.37-4.77-5.89-6q-.41-.15-.55-.56-1.16-3.43-4.81-3.44-.53 0-.65-.52c-.98-4.03-5.36-8.08-8.38-10.81q-.39-.35-.9-.49-1.62-.44-1.5-2.13a.83.82-75.3 0 0-.46-.8q-2.27-1.11-2.94-3.63a.6.57 12.7 0 0-.2-.3l-4.17-3.04q-.45-.33-.55-.87-.87-4.47-6.48-3.63l75.38-75.29Z"/><rect width="61.46" height="15.7" x="321.77" y="160.78" fill="#fff" rx="7.63"/><path fill="#fff" d="m441.5 497.99-193.91-.01q-.52 0-.52-.52l-.3-94.95.26-212.55q0-.58.58-.58l209.75-.09q.64-.01.64.63v307.56a.52.52 0 0 1-.52.52l-15.98-.01ZM257.77 342.26l.01 142.67q0 .54.53.54l119.67-.01 68.79.01q.48 0 .48-.47V201.94a.44.44 0 0 0-.44-.44H258.26q-.53 0-.53.53l.04 140.23Z"/><path fill="#10507f" d="M377.98 485.46q7.71-1.81 15.45-1.76a.92.91 74 0 0 .78-1.41q-3.62-5.69-8.76-9.98a1.21 1.19-71.2 0 1-.42-.87c-.08-3.34-1.89-3.71-3.65-5.63-2.27-2.48-4.52-5.26-7.17-7.34q-.82-.65-1.13-1.69-.15-.49-.62-.69l-1.95-.85a.89.87-.7 0 1-.43-.41q-1.61-3.21-5.03-4.33a.79.79 0 0 1-.54-.64q-.28-1.97-2.18-2.6a1.03 1.03 0 0 1-.71-.89q-.25-2.98-3.14-3.67a1.27 1.24 82.3 0 1-.83-.65l-.91-1.82q-.25-.49-.78-.66c-1.24-.39-2.28-1.14-2.83-2.44q-2.55-6.01-7.81-9.97-1.41-1.07-4.12-5.53a1.64 1.57-2.5 0 0-.74-.65q-3.64-1.59-5.66-5.1-.28-.49-.82-.68-1.25-.45-1.59-1.65a1.21 1.08-77.7 0 0-.27-.48l-12.81-13.47q-.33-.34-.48-.79-.54-1.66-2.08-2.57a1.86 1.81-89.2 0 1-.72-.76q-2.3-4.45-6.12-7.67-.07-.06-.17-.06h-.27q-.38.01-.6-.29-1.31-1.78-2.98-3.21c-1.74-1.49-2.65-3.56-4.86-4.73q-.44-.24-.55-.72c-.41-1.76-1.86-2.32-2.7-3.26q-2.23-2.47-4.32-5.07c-4.1-5.11-8.98-9.32-12.79-14.56q-4.3-5.93-10.34-10.17-.44-.31-.62-.81-.89-2.42-3.36-3.32-.54-.2-.8-.71-1.1-2.18-3.17-3.42-.43-.26-.68-.68l-1.89-3.09q-.4-.65-.54.11l-1.5 8.44-.04-140.23q0-.53.53-.53h188.55a.44.44 0 0 1 .44.44V485q0 .47-.48.47l-68.79-.01Z"/><path fill="#12588c" d="M159.45 222.47q5.61-.84 6.48 3.63.1.54.55.87l4.17 3.04a.6.57 12.7 0 1 .2.3q.67 2.52 2.94 3.63a.83.82-75.3 0 1 .46.8q-.12 1.69 1.5 2.13.51.14.9.49c3.02 2.73 7.4 6.78 8.38 10.81q.12.52.65.52 3.65.01 4.81 3.44.14.41.55.56c3.52 1.23 3.64 3.85 5.89 6q9.93 9.49 17.97 20.65.29.41.76.58 2.99 1.14 3.81 4.88.36 1.63 2.25 1.43.53-.05.68.46.62 2.06 2.12 3.63.3.32.39.75 1.05 5.37 3.59 3.55l-.01 168.87-.28 3.12a.34.34 0 0 1-.67.04l-.53-2.88a.13.13 0 0 0-.24-.03l-.24.44q-.53.99-.63-.12-.31-3.69-3.54-5.11a1.72 1.71-4.2 0 1-.76-.65q-1.62-2.55-3.69-4.71c-1.43-1.49-2.42-3.42-4.07-4.89-5.78-5.15-10.13-12.8-15.57-18.63-2.77-2.97-4.9-6.34-8.19-9.01-3.19-2.58-5.82-6.9-8.62-8.78q-1.95-1.3-2.68-2.57-4.43-7.61-10.98-13.41c-1.81-1.6-3.22-4.09-5.83-5.43q-.46-.23-.74-.67-3.93-6-9.25-10.77-3.17-2.85-5.33-5.5c-1.81-2.21-4.77-4.73-5.97-7.23-.61-1.25-2.25-2.16-2.91-3-3.69-4.72-8.33-8.32-11.94-13.5q-.29-.42-.75-.63c-1.7-.77-3.02-1.08-4.26-2.6q-6.8-8.31-14.29-16.03c-.97-1-1.48-2.58-2.8-3.54q-.38-.28-.85-.33l-1.55-.15q-.64-.07-.6-.7c.26-4.63-5.01-3.59-5.88-7.73q-.1-.49-.6-.49h-.74q-.35 0-.5-.33l-.8-1.81a.73.72-15.9 0 0-.77-.42c-1.11.17-1.92.54-2.91-.02q-1.46-.82-.67-2.54.23-.47-.12-.86c-2.35-2.67-3.43-6.84-7.76-6.73a.47.47 0 0 1-.48-.54q.42-2.76 2.65-4.32.44-.31.35-.84l-.06-.36 77.01-76.76Z"/><path fill="#1569a7" d="m82.44 299.23.06.36q.09.53-.35.84-2.23 1.56-2.65 4.32a.47.47 0 0 0 .48.54c4.33-.11 5.41 4.06 7.76 6.73q.35.39.12.86-.79 1.72.67 2.54c.99.56 1.8.19 2.91.02a.73.72-15.9 0 1 .77.42l.8 1.81q.15.33.5.33h.74q.5 0 .6.49c.87 4.14 6.14 3.1 5.88 7.73q-.04.63.6.7l1.55.15q.47.05.85.33c1.32.96 1.83 2.54 2.8 3.54q7.49 7.72 14.29 16.03c1.24 1.52 2.56 1.83 4.26 2.6q.46.21.75.63c3.61 5.18 8.25 8.78 11.94 13.5.66.84 2.3 1.75 2.91 3 1.2 2.5 4.16 5.02 5.97 7.23q2.16 2.65 5.33 5.5 5.32 4.77 9.25 10.77.28.44.74.67c2.61 1.34 4.02 3.83 5.83 5.43q6.55 5.8 10.98 13.41.73 1.27 2.68 2.57c2.8 1.88 5.43 6.2 8.62 8.78 3.29 2.67 5.42 6.04 8.19 9.01 5.44 5.83 9.79 13.48 15.57 18.63 1.65 1.47 2.64 3.4 4.07 4.89q2.07 2.16 3.69 4.71a1.72 1.71-4.2 0 0 .76.65q3.23 1.42 3.54 5.11.1 1.11.63.12l.24-.44a.13.13 0 0 1 .24.03l.53 2.88a.34.34 0 0 0 .67-.04l.28-3.12q0 33.86.03 67.7c.01 16.82 10.41 30.75 26.27 34.96q5.25 1.4 16.03 1.37 26.56-.06 53.27.01l-4.55.86a.39.39 0 0 0-.01.76l6.55 1.3q.41.08.57.47c1.91 4.48 3.48 6.41 7.55 10.04q3.38 3 5.58 7.06c.71 1.31 1.2 1.61 2.55 2.06q.51.17.82.61 2.48 3.51 6.22 5.53.47.25.64.75c.82 2.4 3.01 3.66 4.15 6.08q.22.46.69.65l1.75.69q.48.2.8.6c4.26 5.28 9.16 9.87 13.26 15.22 1.07 1.39 1.06 3.6 3.56 4.15q.48.11.77.5 2.14 2.91 4.44 5.7c1.04 1.27 1.37.81 2.32 1.45q1.91 1.3 2.6 3.57a.98.97 56.5 0 1-.18.9q-3.9 4.7-.42 3.11l-59.33 59.37-19.45-1.91q.21-1.67-2.2-1.95-.79-.1-.08-.45l1.02-.49a.41.41 0 0 0 .03-.71q-3.78-2.27-5.58-6.34a1.08 1.07 84.3 0 0-.74-.61l-2.41-.55q-.54-.12-.49-.66c.32-3.75-3.94-5.56-5.76-8.45-.62-.99-1.12-1.24-2.14-1.6q-.51-.17-.82-.62l-3.3-4.74q-.32-.46-.87-.49-2.58-.17-1.8-2.72a.76.74 27.7 0 0-.26-.81q-.97-.78-1.72-.06a.73.72 60.7 0 1-1.19-.34q-1.44-5.33-6.49-7.67-.42-.19-.51-.64-.88-4.02-4.83-5.5a.91.9-85 0 1-.58-.7q-.4-2.3-2.58-2.62-.65-.09-.91-.7c-2.24-5.32-6.91-8.29-11.07-13.48q-.32-.4-.81-.55c-3.03-1-2.48-4.04-4.91-5.93a.84.84 0 0 0-1.04.02l-1.17.97a.58.57-46.3 0 1-.71.02q-.54-.4-.14-1.17a1.04.9-14.1 0 1 .12-.17l.68-.68a.61.61 0 0 0-.05-.91c-2.46-1.96-3.12-4.82-5.76-6.32q-.41-.23-.63-.64-.54-.99-1.36-1.69-4.25-3.61-7.09-8.43-1.05-1.78-3.69-1.64a.54.54 0 0 1-.57-.59q.19-2.36-2.02-3.14-.48-.17-.69-.64-1.79-4.08-5.57-6.39-.46-.28-.7-.76-1.51-3.01-4.41-4.81-.45-.28-.63-.79-1.58-4.4-6.06-5.7-.47-.14-.29-.6c.97-2.51-3.42-4.36-4.85-5.6q-.42-.36-.49-.92-.25-2.15-1.99-3.37-.47-.33-.74-.84-1.17-2.21-3.18-3.72-.19-.15-.19.09v.47q0 .29-.15.05-4-6.42-10.11-10.78c-1.48-1.06-2.23-2.62-4-3.59q-.44-.24-.72-.66-1.05-1.61-1.39-3.49-.09-.49-.45-.84c-1.71-1.72-6.63-5.86-7.73-9.15q-.16-.48-.68-.5-.32-.01-.63-.12-.52-.17-.95-.71-2.16-2.71-4.71-5.13c-1.7-1.61-3.94-1.64-5.15-4.14-2-4.15-4.59-6.54-8.59-8.76a1.64 1.64 0 0 1-.69-.72c-1.21-2.36-3.06-4.25-4.4-6.44q-2.73-4.46-6.96-7.7a1.16 1.15-78.6 0 1-.41-.62q-.5-2.04-2.59-2.15-.46-.02-.68-.42l-2.24-4.14a1.07 1.05-12.4 0 0-.88-.55q-1.99-.07-2.95-1.75-.26-.46-.31-.98-.28-2.98-3.14-3.67a1.39 1.36 85.2 0 1-.96-.83q-.51-1.3-1.97-.91a.97.97 0 0 1-.94-.24q-.96-.92-.58-2.25a.8.79 34.4 0 0-.13-.68l-4.73-6.05q-.3-.38-.77-.54c-2.65-.92-3.78-2.1-4.76-4.97q-2.02-5.85-8.09-7.82-.42-.13-.56-.56-1.65-5.3-7.06-6.92-.7-.21-.29-.82l.57-.85a.63.63 0 0 0-.02-.73q-3.2-4.23-7.66-6.97-.47-.29-.68-.81-1.91-4.74-6.45-7.08a1.01.97-82.2 0 1-.51-.7q-.49-2.72-2.99-3.95a1.34 1.29-1 0 1-.57-.53q-2.85-5-7.4-8.43c-2.42-1.82-3.34-3.82-4.86-6.24a1.54 1.47-5 0 0-.76-.61c-1.63-.59-2.12-2.32-2.9-3.12q-3.74-3.81-7.81-7.3c-.85-.73-2.27-.89-2.71-2.19-.73-2.2-.78-2.69-2.52-3.74q-.44-.27-.67-.73-.41-.85-1.29-1.04a5.61 4.97 87.3 0 1-3.87-3.97q-.42-1.59-2.23-1.15-.57.13-.94-.32l-.73-.93q-.51-.65.27-.92l.48-.16a.56.56 0 0 0 .26-.87q-3.39-4.32-7.36-8.13-.84-.8-2.03-.72-.53.03-.7-.46c-2.04-5.92-7.61-6.69-9.98-12.05q-.2-.45-.55-.79l-1.81-1.79q-.41-.4-.06-.86.91-1.17 1.03-2.32l70.49-70.48Z"/><path fill="#12588c" d="m377.98 485.46-119.67.01q-.53 0-.53-.54l-.01-142.67 1.5-8.44q.14-.76.54-.11l1.89 3.09q.25.42.68.68 2.07 1.24 3.17 3.42.26.51.8.71 2.47.9 3.36 3.32.18.5.62.81 6.04 4.24 10.34 10.17c3.81 5.24 8.69 9.45 12.79 14.56q2.09 2.6 4.32 5.07c.84.94 2.29 1.5 2.7 3.26q.11.48.55.72c2.21 1.17 3.12 3.24 4.86 4.73q1.67 1.43 2.98 3.21.22.3.6.29h.27q.1 0 .17.06 3.82 3.22 6.12 7.67a1.86 1.81-89.2 0 0 .72.76q1.54.91 2.08 2.57.15.45.48.79l12.81 13.47a1.21 1.08-77.7 0 1 .27.48q.34 1.2 1.59 1.65.54.19.82.68 2.02 3.51 5.66 5.1a1.64 1.57-2.5 0 1 .74.65q2.71 4.46 4.12 5.53 5.26 3.96 7.81 9.97c.55 1.3 1.59 2.05 2.83 2.44q.53.17.78.66l.91 1.82a1.27 1.24 82.3 0 0 .83.65q2.89.69 3.14 3.67a1.03 1.03 0 0 0 .71.89q1.9.63 2.18 2.6a.79.79 0 0 0 .54.64q3.42 1.12 5.03 4.33a.89.87-.7 0 0 .43.41l1.95.85q.47.2.62.69.31 1.04 1.13 1.69c2.65 2.08 4.9 4.86 7.17 7.34 1.76 1.92 3.57 2.29 3.65 5.63a1.21 1.19-71.2 0 0 .42.87q5.14 4.29 8.76 9.98a.92.91 74 0 1-.78 1.41q-7.74-.05-15.45 1.76Z"/><path fill="#1771b3" d="M11.95 369.71q-.12 1.15-1.03 2.32-.35.46.06.86l1.81 1.79q.35.34.55.79c2.37 5.36 7.94 6.13 9.98 12.05q.17.49.7.46 1.19-.08 2.03.72 3.97 3.81 7.36 8.13a.56.56 0 0 1-.26.87l-.48.16q-.78.27-.27.92l.73.93q.37.45.94.32 1.81-.44 2.23 1.15a5.61 4.97 87.3 0 0 3.87 3.97q.88.19 1.29 1.04.23.46.67.73c1.74 1.05 1.79 1.54 2.52 3.74.44 1.3 1.86 1.46 2.71 2.19q4.07 3.49 7.81 7.3c.78.8 1.27 2.53 2.9 3.12a1.54 1.47-5 0 1 .76.61c1.52 2.42 2.44 4.42 4.86 6.24q4.55 3.43 7.4 8.43a1.34 1.29-1 0 0 .57.53q2.5 1.23 2.99 3.95a1.01.97-82.2 0 0 .51.7q4.54 2.34 6.45 7.08.21.52.68.81 4.46 2.74 7.66 6.97a.63.63 0 0 1 .02.73l-.57.85q-.41.61.29.82 5.41 1.62 7.06 6.92.14.43.56.56 6.07 1.97 8.09 7.82c.98 2.87 2.11 4.05 4.76 4.97q.47.16.77.54l4.73 6.05a.8.79 34.4 0 1 .13.68q-.38 1.33.58 2.25a.97.97 0 0 0 .94.24q1.46-.39 1.97.91a1.39 1.36 85.2 0 0 .96.83q2.86.69 3.14 3.67.05.52.31.98.96 1.68 2.95 1.75a1.07 1.05-12.4 0 1 .88.55l2.24 4.14q.22.4.68.42 2.09.11 2.59 2.15a1.16 1.15-78.6 0 0 .41.62q4.23 3.24 6.96 7.7c1.34 2.19 3.19 4.08 4.4 6.44a1.64 1.64 0 0 0 .69.72c4 2.22 6.59 4.61 8.59 8.76 1.21 2.5 3.45 2.53 5.15 4.14q2.55 2.42 4.71 5.13.43.54.95.71.31.11.63.12.52.02.68.5c1.1 3.29 6.02 7.43 7.73 9.15q.36.35.45.84.34 1.88 1.39 3.49.28.42.72.66c1.77.97 2.52 2.53 4 3.59q6.11 4.36 10.11 10.78.15.24.15-.05v-.47q0-.24.19-.09 2.01 1.51 3.18 3.72.27.51.74.84 1.74 1.22 1.99 3.37.07.56.49.92c1.43 1.24 5.82 3.09 4.85 5.6q-.18.46.29.6 4.48 1.3 6.06 5.7.18.51.63.79 2.9 1.8 4.41 4.81.24.48.7.76 3.78 2.31 5.57 6.39.21.47.69.64 2.21.78 2.02 3.14a.54.54 0 0 0 .57.59q2.64-.14 3.69 1.64 2.84 4.82 7.09 8.43.82.7 1.36 1.69.22.41.63.64c2.64 1.5 3.3 4.36 5.76 6.32a.61.61 0 0 1 .05.91l-.68.68a1.04.9-14.1 0 0-.12.17q-.4.77.14 1.17a.58.57-46.3 0 0 .71-.02l1.17-.97a.84.84 0 0 1 1.04-.02c2.43 1.89 1.88 4.93 4.91 5.93q.49.15.81.55c4.16 5.19 8.83 8.16 11.07 13.48q.26.61.91.7 2.18.32 2.58 2.62a.91.9-85 0 0 .58.7q3.95 1.48 4.83 5.5.09.45.51.64 5.05 2.34 6.49 7.67a.73.72 60.7 0 0 1.19.34q.75-.72 1.72.06a.76.74 27.7 0 1 .26.81q-.78 2.55 1.8 2.72.55.03.87.49l3.3 4.74q.31.45.82.62c1.02.36 1.52.61 2.14 1.6 1.82 2.89 6.08 4.7 5.76 8.45q-.05.54.49.66l2.41.55a1.08 1.07 84.3 0 1 .74.61q1.8 4.07 5.58 6.34a.41.41 0 0 1-.03.71l-1.02.49q-.71.35.08.45 2.41.28 2.2 1.95c-70.31-10-133.08-37.6-185.66-83.87C51.63 553.61 9.42 470.98 1.45 381.05l10.5-11.34Z"/><path fill="#12588c" d="m240.51 381.75.2 20.05a.14.13 90 0 0 .13.14q.04 0 .08-.01.06 0 .06-.06-.05-2.61.25-5.21.08-.63.49-.14.1.12.16.29.09.26.21.02l.51-1.05q.47-.95.98-.02l1.11 2.01q.27.5.54 0l.28-.52q.19-.36.21.05c.06 1.33.32 2.55.4 3.91q.06.97.65 1.3l.3 94.95q0 .52.52.52l193.91.01-9.52 1.75q-.48.08-.5.57-.15 2.69 2.08 4.32.42.31.61.81 1 2.65 3.11 4.62c1.3 1.22 3.26 1.47 4.38 3.51q.24.44.04.9-.97 2.19 1.25 2.63 2.12.42 2.2 2.19.03.59.58.82 3.8 1.54 6.09 4.83.29.41.79.49 1.9.31 1.8 2.37-.02.56.4.92l3.5 3.05a1.28 1.24 18.2 0 1 .43.82q.23 1.99 2.11 2.16.66.06.79.71l1.09 5.18q-4.5 11.42-15.56 14.96-4.5 1.44-15.02 1.4c-54.35-.23-107.95-.11-161.89.04-13.03.04-24.05-4.02-28.27-17.43q-1.48-4.72-1.49-15.5-.01-71.18.01-142.36Zm131.67 146.67a19.68 19.68 0 0 0-19.68-19.68 19.68 19.68 0 0 0-19.68 19.68 19.68 19.68 0 0 0 19.68 19.68 19.68 19.68 0 0 0 19.68-19.68Z"/><circle cx="352.5" cy="528.42" r="19.68" fill="#fff"/><path fill="#12588c" d="m462.71 560.41-78.96 79.18q-3.48 1.59.42-3.11a.98.97 56.5 0 0 .18-.9q-.69-2.27-2.6-3.57c-.95-.64-1.28-.18-2.32-1.45q-2.3-2.79-4.44-5.7-.29-.39-.77-.5c-2.5-.55-2.49-2.76-3.56-4.15-4.1-5.35-9-9.94-13.26-15.22q-.32-.4-.8-.6l-1.75-.69q-.47-.19-.69-.65c-1.14-2.42-3.33-3.68-4.15-6.08q-.17-.5-.64-.75-3.74-2.02-6.22-5.53-.31-.44-.82-.61c-1.35-.45-1.84-.75-2.55-2.06q-2.2-4.06-5.58-7.06c-4.07-3.63-5.64-5.56-7.55-10.04q-.16-.39-.57-.47l-6.55-1.3a.39.39 0 0 1 .01-.76l4.55-.86q56.03-.05 112.25-.03c11.14 0 17.87-1.18 26.37-7.09Z"/></svg>